#tb 0: 1/25
0,          0,          0,        1,  8294400, 0xa061c78c
0,          1,          1,        1,  8294400, 0x60250c76
0,          2,          2,        1,  8294400, 0x48e3fbdb
